<svg width="1200" height="630" viewBox="0 0 1200 630" fill="none" xmlns="http://www.w3.org/2000/svg">
  <rect width="1200" height="630" fill="#0B1220"/>
  <rect x="44" y="44" width="1112" height="542" rx="28" fill="#111A2B" stroke="#243249"/>
  <rect x="86" y="112" width="224" height="40" rx="20" fill="#163A63"/>
  <text x="116" y="138" fill="#BFE3FF" font-size="20" font-family="Geist Mono, monospace" letter-spacing="2">REDES E IPV6</text>
  <text x="86" y="256" fill="#F5F7FA" font-size="78" font-family="Geist, Arial, sans-serif" font-weight="700">Migracion IPv6</text>
  <text x="86" y="340" fill="#B8C7D9" font-size="34" font-family="Geist, Arial, sans-serif">Transicion dual-stack con continuidad operativa, trazabilidad y control.</text>
  <text x="86" y="460" fill="#8FB6D9" font-size="24" font-family="Geist Mono, monospace" letter-spacing="3">IPV6 / ROUTING / NETWORK MONITORING</text>
  <path d="M918 164C918 124.235 950.235 92 990 92H1020C1059.76 92 1092 124.235 1092 164V164C1092 203.765 1059.76 236 1020 236H990C950.235 236 918 203.765 918 164V164Z" fill="#163A63"/>
  <path d="M950 164H1060" stroke="#BFE3FF" stroke-width="18" stroke-linecap="round"/>
  <path d="M1004 118L1050 164L1004 210" stroke="#8FD2FF" stroke-width="18" stroke-linecap="round" stroke-linejoin="round"/>
</svg>
